<mxfile host="app.diagrams.net" agent="Mozilla/5.0 (X11; Linux x86_64) AppleWebKit/537.36 (KHTML, like Gecko) Chrome/132.0.0.0 Safari/537.36" version="26.0.16">
  <diagram name="第 1 页" id="MwHkkEf8tN-5ccca-qN6">
    <mxGraphModel dx="2117" dy="562" grid="1" gridSize="10" guides="1" tooltips="1" connect="1" arrows="1" fold="1" page="1" pageScale="1" pageWidth="827" pageHeight="1169" math="0" shadow="0">
      <root>
        <mxCell id="0" />
        <mxCell id="1" parent="0" />
        <mxCell id="J7jB4TTMjMiGMBnz-TKs-1" value="" style="endArrow=classic;html=1;rounded=0;startArrow=none;startFill=0;endFill=1;labelBackgroundColor=none;fontColor=default;" parent="1" edge="1">
          <mxGeometry width="50" height="50" relative="1" as="geometry">
            <mxPoint x="-760" y="281" as="sourcePoint" />
            <mxPoint x="160" y="281" as="targetPoint" />
          </mxGeometry>
        </mxCell>
        <mxCell id="J7jB4TTMjMiGMBnz-TKs-3" value="" style="verticalLabelPosition=bottom;verticalAlign=top;html=1;shape=mxgraph.flowchart.on-page_reference;labelBackgroundColor=none;" parent="1" vertex="1">
          <mxGeometry x="-651" y="270" width="20" height="20" as="geometry" />
        </mxCell>
        <mxCell id="J7jB4TTMjMiGMBnz-TKs-8" value="" style="shape=sumEllipse;perimeter=ellipsePerimeter;whiteSpace=wrap;html=1;backgroundOutline=1;labelBackgroundColor=none;" parent="1" vertex="1">
          <mxGeometry x="30" y="270" width="20" height="20" as="geometry" />
        </mxCell>
        <mxCell id="J7jB4TTMjMiGMBnz-TKs-18" value="CASE 1.0" style="text;html=1;align=center;verticalAlign=middle;whiteSpace=wrap;rounded=0;labelBackgroundColor=none;" parent="1" vertex="1">
          <mxGeometry x="-377" y="340" width="250" height="30" as="geometry" />
        </mxCell>
        <mxCell id="J7jB4TTMjMiGMBnz-TKs-50" value="设备分析报表-机组开停机一览表场景分析" style="text;html=1;align=left;verticalAlign=middle;whiteSpace=wrap;rounded=0;fontStyle=1;labelBackgroundColor=none;" parent="1" vertex="1">
          <mxGeometry x="-759.75" y="41" width="237.5" height="30" as="geometry" />
        </mxCell>
        <mxCell id="J7jB4TTMjMiGMBnz-TKs-105" value="查询开始时间" style="text;html=1;align=center;verticalAlign=middle;whiteSpace=wrap;rounded=0;labelBackgroundColor=none;" parent="1" vertex="1">
          <mxGeometry x="-704.3499999999999" y="6227" width="90" height="30" as="geometry" />
        </mxCell>
        <mxCell id="J7jB4TTMjMiGMBnz-TKs-106" value="查询结束时间" style="text;html=1;align=center;verticalAlign=middle;whiteSpace=wrap;rounded=0;labelBackgroundColor=none;" parent="1" vertex="1">
          <mxGeometry x="-704.3499999999999" y="6274" width="90" height="30" as="geometry" />
        </mxCell>
        <mxCell id="xu7K4sSo9NaXd2ChQRZj-1" value="" style="html=1;shadow=0;dashed=1;align=center;verticalAlign=middle;shape=mxgraph.arrows2.arrow;dy=0.6;dx=40;direction=south;notch=0;labelBackgroundColor=none;" parent="1" vertex="1">
          <mxGeometry x="-450" y="241" width="20" height="20" as="geometry" />
        </mxCell>
        <mxCell id="xu7K4sSo9NaXd2ChQRZj-2" value="" style="html=1;shadow=0;align=center;verticalAlign=middle;shape=mxgraph.arrows2.arrow;dy=0.6;dx=40;direction=south;notch=0;labelBackgroundColor=none;" parent="1" vertex="1">
          <mxGeometry x="-129" y="241" width="20" height="20" as="geometry" />
        </mxCell>
        <mxCell id="xu7K4sSo9NaXd2ChQRZj-54" value="" style="html=1;shadow=0;dashed=1;align=center;verticalAlign=middle;shape=mxgraph.arrows2.arrow;dy=0.6;dx=40;direction=south;notch=0;labelBackgroundColor=none;" parent="1" vertex="1">
          <mxGeometry x="-755.75" y="6231" width="20" height="20" as="geometry" />
        </mxCell>
        <mxCell id="xu7K4sSo9NaXd2ChQRZj-55" value="" style="html=1;shadow=0;align=center;verticalAlign=middle;shape=mxgraph.arrows2.arrow;dy=0.6;dx=40;direction=south;notch=0;labelBackgroundColor=none;" parent="1" vertex="1">
          <mxGeometry x="-755.75" y="6279" width="20" height="20" as="geometry" />
        </mxCell>
        <mxCell id="xu7K4sSo9NaXd2ChQRZj-66" value="" style="verticalLabelPosition=bottom;verticalAlign=top;html=1;shape=mxgraph.flowchart.on-page_reference;labelBackgroundColor=none;" parent="1" vertex="1">
          <mxGeometry x="-552.75" y="6231" width="20" height="20" as="geometry" />
        </mxCell>
        <mxCell id="xu7K4sSo9NaXd2ChQRZj-67" value="" style="shape=sumEllipse;perimeter=ellipsePerimeter;whiteSpace=wrap;html=1;backgroundOutline=1;labelBackgroundColor=none;" parent="1" vertex="1">
          <mxGeometry x="-552.75" y="6279" width="20" height="20" as="geometry" />
        </mxCell>
        <mxCell id="xu7K4sSo9NaXd2ChQRZj-68" value="机组开机时间" style="text;html=1;align=center;verticalAlign=middle;whiteSpace=wrap;rounded=0;labelBackgroundColor=none;" parent="1" vertex="1">
          <mxGeometry x="-495.75" y="6227" width="90" height="30" as="geometry" />
        </mxCell>
        <mxCell id="xu7K4sSo9NaXd2ChQRZj-69" value="机组停机时间" style="text;html=1;align=center;verticalAlign=middle;whiteSpace=wrap;rounded=0;labelBackgroundColor=none;" parent="1" vertex="1">
          <mxGeometry x="-495.75" y="6274" width="90" height="30" as="geometry" />
        </mxCell>
        <mxCell id="xu7K4sSo9NaXd2ChQRZj-327" value="" style="endArrow=classic;html=1;rounded=0;startArrow=none;startFill=0;endFill=1;labelBackgroundColor=none;fontColor=default;" parent="1" edge="1">
          <mxGeometry width="50" height="50" relative="1" as="geometry">
            <mxPoint x="-759.75" y="521" as="sourcePoint" />
            <mxPoint x="160.25" y="521" as="targetPoint" />
          </mxGeometry>
        </mxCell>
        <mxCell id="xu7K4sSo9NaXd2ChQRZj-328" value="" style="verticalLabelPosition=bottom;verticalAlign=top;html=1;shape=mxgraph.flowchart.on-page_reference;labelBackgroundColor=none;" parent="1" vertex="1">
          <mxGeometry x="-650.75" y="510" width="20" height="20" as="geometry" />
        </mxCell>
        <mxCell id="xu7K4sSo9NaXd2ChQRZj-329" value="" style="shape=sumEllipse;perimeter=ellipsePerimeter;whiteSpace=wrap;html=1;backgroundOutline=1;labelBackgroundColor=none;" parent="1" vertex="1">
          <mxGeometry x="-129.75" y="510" width="20" height="20" as="geometry" />
        </mxCell>
        <mxCell id="xu7K4sSo9NaXd2ChQRZj-334" value="CASE 1.1" style="text;html=1;align=center;verticalAlign=middle;whiteSpace=wrap;rounded=0;labelBackgroundColor=none;" parent="1" vertex="1">
          <mxGeometry x="-376.75" y="580" width="250" height="30" as="geometry" />
        </mxCell>
        <mxCell id="xu7K4sSo9NaXd2ChQRZj-335" value="" style="html=1;shadow=0;dashed=1;align=center;verticalAlign=middle;shape=mxgraph.arrows2.arrow;dy=0.6;dx=40;direction=south;notch=0;labelBackgroundColor=none;" parent="1" vertex="1">
          <mxGeometry x="-449.75" y="481" width="20" height="20" as="geometry" />
        </mxCell>
        <mxCell id="xu7K4sSo9NaXd2ChQRZj-336" value="" style="html=1;shadow=0;align=center;verticalAlign=middle;shape=mxgraph.arrows2.arrow;dy=0.6;dx=40;direction=south;notch=0;labelBackgroundColor=none;" parent="1" vertex="1">
          <mxGeometry x="-128.75" y="481" width="20" height="20" as="geometry" />
        </mxCell>
        <mxCell id="xu7K4sSo9NaXd2ChQRZj-337" value="" style="endArrow=classic;html=1;rounded=0;startArrow=none;startFill=0;endFill=1;labelBackgroundColor=none;fontColor=default;" parent="1" edge="1">
          <mxGeometry width="50" height="50" relative="1" as="geometry">
            <mxPoint x="-759.75" y="761" as="sourcePoint" />
            <mxPoint x="160.25" y="761" as="targetPoint" />
          </mxGeometry>
        </mxCell>
        <mxCell id="xu7K4sSo9NaXd2ChQRZj-338" value="" style="verticalLabelPosition=bottom;verticalAlign=top;html=1;shape=mxgraph.flowchart.on-page_reference;labelBackgroundColor=none;" parent="1" vertex="1">
          <mxGeometry x="-650.75" y="750" width="20" height="20" as="geometry" />
        </mxCell>
        <mxCell id="xu7K4sSo9NaXd2ChQRZj-339" value="" style="shape=sumEllipse;perimeter=ellipsePerimeter;whiteSpace=wrap;html=1;backgroundOutline=1;labelBackgroundColor=none;" parent="1" vertex="1">
          <mxGeometry x="-209.75" y="750" width="20" height="20" as="geometry" />
        </mxCell>
        <mxCell id="xu7K4sSo9NaXd2ChQRZj-344" value="CASE 1.2" style="text;html=1;align=center;verticalAlign=middle;whiteSpace=wrap;rounded=0;labelBackgroundColor=none;" parent="1" vertex="1">
          <mxGeometry x="-376.75" y="820" width="250" height="30" as="geometry" />
        </mxCell>
        <mxCell id="xu7K4sSo9NaXd2ChQRZj-345" value="" style="html=1;shadow=0;dashed=1;align=center;verticalAlign=middle;shape=mxgraph.arrows2.arrow;dy=0.6;dx=40;direction=south;notch=0;labelBackgroundColor=none;" parent="1" vertex="1">
          <mxGeometry x="-449.75" y="721" width="20" height="20" as="geometry" />
        </mxCell>
        <mxCell id="xu7K4sSo9NaXd2ChQRZj-346" value="" style="html=1;shadow=0;align=center;verticalAlign=middle;shape=mxgraph.arrows2.arrow;dy=0.6;dx=40;direction=south;notch=0;labelBackgroundColor=none;" parent="1" vertex="1">
          <mxGeometry x="-128.75" y="721" width="20" height="20" as="geometry" />
        </mxCell>
        <mxCell id="xu7K4sSo9NaXd2ChQRZj-347" value="" style="endArrow=classic;html=1;rounded=0;startArrow=none;startFill=0;endFill=1;labelBackgroundColor=none;fontColor=default;" parent="1" edge="1">
          <mxGeometry width="50" height="50" relative="1" as="geometry">
            <mxPoint x="-759.75" y="1000" as="sourcePoint" />
            <mxPoint x="160.25" y="1000" as="targetPoint" />
          </mxGeometry>
        </mxCell>
        <mxCell id="xu7K4sSo9NaXd2ChQRZj-348" value="" style="verticalLabelPosition=bottom;verticalAlign=top;html=1;shape=mxgraph.flowchart.on-page_reference;labelBackgroundColor=none;" parent="1" vertex="1">
          <mxGeometry x="-650.75" y="989" width="20" height="20" as="geometry" />
        </mxCell>
        <mxCell id="xu7K4sSo9NaXd2ChQRZj-349" value="" style="shape=sumEllipse;perimeter=ellipsePerimeter;whiteSpace=wrap;html=1;backgroundOutline=1;labelBackgroundColor=none;" parent="1" vertex="1">
          <mxGeometry x="-449.75" y="989" width="20" height="20" as="geometry" />
        </mxCell>
        <mxCell id="xu7K4sSo9NaXd2ChQRZj-354" value="CASE 1.3" style="text;html=1;align=center;verticalAlign=middle;whiteSpace=wrap;rounded=0;labelBackgroundColor=none;" parent="1" vertex="1">
          <mxGeometry x="-376.75" y="1059" width="250" height="30" as="geometry" />
        </mxCell>
        <mxCell id="xu7K4sSo9NaXd2ChQRZj-355" value="" style="html=1;shadow=0;dashed=1;align=center;verticalAlign=middle;shape=mxgraph.arrows2.arrow;dy=0.6;dx=40;direction=south;notch=0;labelBackgroundColor=none;" parent="1" vertex="1">
          <mxGeometry x="-449.75" y="960" width="20" height="20" as="geometry" />
        </mxCell>
        <mxCell id="xu7K4sSo9NaXd2ChQRZj-356" value="" style="html=1;shadow=0;align=center;verticalAlign=middle;shape=mxgraph.arrows2.arrow;dy=0.6;dx=40;direction=south;notch=0;labelBackgroundColor=none;" parent="1" vertex="1">
          <mxGeometry x="-128.75" y="960" width="20" height="20" as="geometry" />
        </mxCell>
        <mxCell id="xu7K4sSo9NaXd2ChQRZj-357" value="" style="endArrow=classic;html=1;rounded=0;startArrow=none;startFill=0;endFill=1;labelBackgroundColor=none;fontColor=default;" parent="1" edge="1">
          <mxGeometry width="50" height="50" relative="1" as="geometry">
            <mxPoint x="-759.75" y="1240" as="sourcePoint" />
            <mxPoint x="160.25" y="1240" as="targetPoint" />
          </mxGeometry>
        </mxCell>
        <mxCell id="xu7K4sSo9NaXd2ChQRZj-358" value="" style="verticalLabelPosition=bottom;verticalAlign=top;html=1;shape=mxgraph.flowchart.on-page_reference;labelBackgroundColor=none;" parent="1" vertex="1">
          <mxGeometry x="-650.75" y="1229" width="20" height="20" as="geometry" />
        </mxCell>
        <mxCell id="xu7K4sSo9NaXd2ChQRZj-359" value="" style="shape=sumEllipse;perimeter=ellipsePerimeter;whiteSpace=wrap;html=1;backgroundOutline=1;labelBackgroundColor=none;" parent="1" vertex="1">
          <mxGeometry x="-529.75" y="1229" width="20" height="20" as="geometry" />
        </mxCell>
        <mxCell id="xu7K4sSo9NaXd2ChQRZj-364" value="CASE 1.4" style="text;html=1;align=center;verticalAlign=middle;whiteSpace=wrap;rounded=0;labelBackgroundColor=none;" parent="1" vertex="1">
          <mxGeometry x="-376.75" y="1299" width="250" height="30" as="geometry" />
        </mxCell>
        <mxCell id="xu7K4sSo9NaXd2ChQRZj-365" value="" style="html=1;shadow=0;dashed=1;align=center;verticalAlign=middle;shape=mxgraph.arrows2.arrow;dy=0.6;dx=40;direction=south;notch=0;labelBackgroundColor=none;" parent="1" vertex="1">
          <mxGeometry x="-449.75" y="1200" width="20" height="20" as="geometry" />
        </mxCell>
        <mxCell id="xu7K4sSo9NaXd2ChQRZj-366" value="" style="html=1;shadow=0;align=center;verticalAlign=middle;shape=mxgraph.arrows2.arrow;dy=0.6;dx=40;direction=south;notch=0;labelBackgroundColor=none;" parent="1" vertex="1">
          <mxGeometry x="-128.75" y="1200" width="20" height="20" as="geometry" />
        </mxCell>
        <mxCell id="xu7K4sSo9NaXd2ChQRZj-367" value="" style="endArrow=classic;html=1;rounded=0;startArrow=none;startFill=0;endFill=1;labelBackgroundColor=none;fontColor=default;" parent="1" edge="1">
          <mxGeometry width="50" height="50" relative="1" as="geometry">
            <mxPoint x="-759.5" y="1480" as="sourcePoint" />
            <mxPoint x="160.5" y="1480" as="targetPoint" />
          </mxGeometry>
        </mxCell>
        <mxCell id="xu7K4sSo9NaXd2ChQRZj-368" value="" style="verticalLabelPosition=bottom;verticalAlign=top;html=1;shape=mxgraph.flowchart.on-page_reference;labelBackgroundColor=none;" parent="1" vertex="1">
          <mxGeometry x="-650.5" y="1469" width="20" height="20" as="geometry" />
        </mxCell>
        <mxCell id="xu7K4sSo9NaXd2ChQRZj-369" value="" style="shape=sumEllipse;perimeter=ellipsePerimeter;whiteSpace=wrap;html=1;backgroundOutline=1;labelBackgroundColor=none;" parent="1" vertex="1">
          <mxGeometry x="-730.75" y="1469" width="20" height="20" as="geometry" />
        </mxCell>
        <mxCell id="xu7K4sSo9NaXd2ChQRZj-374" value="CASE 1.5" style="text;html=1;align=center;verticalAlign=middle;whiteSpace=wrap;rounded=0;labelBackgroundColor=none;" parent="1" vertex="1">
          <mxGeometry x="-376.5" y="1539" width="250" height="30" as="geometry" />
        </mxCell>
        <mxCell id="xu7K4sSo9NaXd2ChQRZj-375" value="" style="html=1;shadow=0;dashed=1;align=center;verticalAlign=middle;shape=mxgraph.arrows2.arrow;dy=0.6;dx=40;direction=south;notch=0;labelBackgroundColor=none;" parent="1" vertex="1">
          <mxGeometry x="-449.5" y="1440" width="20" height="20" as="geometry" />
        </mxCell>
        <mxCell id="xu7K4sSo9NaXd2ChQRZj-376" value="" style="html=1;shadow=0;align=center;verticalAlign=middle;shape=mxgraph.arrows2.arrow;dy=0.6;dx=40;direction=south;notch=0;labelBackgroundColor=none;" parent="1" vertex="1">
          <mxGeometry x="-128.5" y="1440" width="20" height="20" as="geometry" />
        </mxCell>
        <mxCell id="xu7K4sSo9NaXd2ChQRZj-377" value="" style="endArrow=classic;html=1;rounded=0;startArrow=none;startFill=0;endFill=1;labelBackgroundColor=none;fontColor=default;" parent="1" edge="1">
          <mxGeometry width="50" height="50" relative="1" as="geometry">
            <mxPoint x="-759.5" y="1720" as="sourcePoint" />
            <mxPoint x="160.5" y="1720" as="targetPoint" />
          </mxGeometry>
        </mxCell>
        <mxCell id="xu7K4sSo9NaXd2ChQRZj-378" value="" style="verticalLabelPosition=bottom;verticalAlign=top;html=1;shape=mxgraph.flowchart.on-page_reference;labelBackgroundColor=none;" parent="1" vertex="1">
          <mxGeometry x="-450.5" y="1709" width="20" height="20" as="geometry" />
        </mxCell>
        <mxCell id="xu7K4sSo9NaXd2ChQRZj-379" value="" style="shape=sumEllipse;perimeter=ellipsePerimeter;whiteSpace=wrap;html=1;backgroundOutline=1;labelBackgroundColor=none;" parent="1" vertex="1">
          <mxGeometry x="30.5" y="1709" width="20" height="20" as="geometry" />
        </mxCell>
        <mxCell id="xu7K4sSo9NaXd2ChQRZj-384" value="CASE 2.0" style="text;html=1;align=center;verticalAlign=middle;whiteSpace=wrap;rounded=0;labelBackgroundColor=none;" parent="1" vertex="1">
          <mxGeometry x="-376.5" y="1779" width="250" height="30" as="geometry" />
        </mxCell>
        <mxCell id="xu7K4sSo9NaXd2ChQRZj-385" value="" style="html=1;shadow=0;dashed=1;align=center;verticalAlign=middle;shape=mxgraph.arrows2.arrow;dy=0.6;dx=40;direction=south;notch=0;labelBackgroundColor=none;" parent="1" vertex="1">
          <mxGeometry x="-449.5" y="1680" width="20" height="20" as="geometry" />
        </mxCell>
        <mxCell id="xu7K4sSo9NaXd2ChQRZj-386" value="" style="html=1;shadow=0;align=center;verticalAlign=middle;shape=mxgraph.arrows2.arrow;dy=0.6;dx=40;direction=south;notch=0;labelBackgroundColor=none;" parent="1" vertex="1">
          <mxGeometry x="-128.5" y="1680" width="20" height="20" as="geometry" />
        </mxCell>
        <mxCell id="xu7K4sSo9NaXd2ChQRZj-387" value="" style="endArrow=classic;html=1;rounded=0;startArrow=none;startFill=0;endFill=1;labelBackgroundColor=none;fontColor=default;" parent="1" edge="1">
          <mxGeometry width="50" height="50" relative="1" as="geometry">
            <mxPoint x="-759.5" y="1959" as="sourcePoint" />
            <mxPoint x="160.5" y="1959" as="targetPoint" />
          </mxGeometry>
        </mxCell>
        <mxCell id="xu7K4sSo9NaXd2ChQRZj-388" value="" style="verticalLabelPosition=bottom;verticalAlign=top;html=1;shape=mxgraph.flowchart.on-page_reference;labelBackgroundColor=none;" parent="1" vertex="1">
          <mxGeometry x="-449.5" y="1948" width="20" height="20" as="geometry" />
        </mxCell>
        <mxCell id="xu7K4sSo9NaXd2ChQRZj-389" value="" style="shape=sumEllipse;perimeter=ellipsePerimeter;whiteSpace=wrap;html=1;backgroundOutline=1;labelBackgroundColor=none;" parent="1" vertex="1">
          <mxGeometry x="-129.5" y="1948" width="20" height="20" as="geometry" />
        </mxCell>
        <mxCell id="xu7K4sSo9NaXd2ChQRZj-392" value="2025-02-01" style="text;html=1;align=center;verticalAlign=middle;whiteSpace=wrap;rounded=0;labelBackgroundColor=none;" parent="1" vertex="1">
          <mxGeometry x="-470.5" y="1870" width="70" height="30" as="geometry" />
        </mxCell>
        <mxCell id="xu7K4sSo9NaXd2ChQRZj-393" value="2025-02-10" style="text;html=1;align=center;verticalAlign=middle;whiteSpace=wrap;rounded=0;labelBackgroundColor=none;" parent="1" vertex="1">
          <mxGeometry x="-154.5" y="1870" width="70" height="30" as="geometry" />
        </mxCell>
        <mxCell id="xu7K4sSo9NaXd2ChQRZj-394" value="CASE 2.1" style="text;html=1;align=center;verticalAlign=middle;whiteSpace=wrap;rounded=0;labelBackgroundColor=none;" parent="1" vertex="1">
          <mxGeometry x="-376.5" y="2018" width="250" height="30" as="geometry" />
        </mxCell>
        <mxCell id="xu7K4sSo9NaXd2ChQRZj-395" value="" style="html=1;shadow=0;dashed=1;align=center;verticalAlign=middle;shape=mxgraph.arrows2.arrow;dy=0.6;dx=40;direction=south;notch=0;labelBackgroundColor=none;" parent="1" vertex="1">
          <mxGeometry x="-449.5" y="1919" width="20" height="20" as="geometry" />
        </mxCell>
        <mxCell id="xu7K4sSo9NaXd2ChQRZj-396" value="" style="html=1;shadow=0;align=center;verticalAlign=middle;shape=mxgraph.arrows2.arrow;dy=0.6;dx=40;direction=south;notch=0;labelBackgroundColor=none;" parent="1" vertex="1">
          <mxGeometry x="-128.5" y="1919" width="20" height="20" as="geometry" />
        </mxCell>
        <mxCell id="xu7K4sSo9NaXd2ChQRZj-397" value="" style="endArrow=classic;html=1;rounded=0;startArrow=none;startFill=0;endFill=1;labelBackgroundColor=none;fontColor=default;" parent="1" edge="1">
          <mxGeometry width="50" height="50" relative="1" as="geometry">
            <mxPoint x="-759.75" y="2201" as="sourcePoint" />
            <mxPoint x="160.25" y="2201" as="targetPoint" />
          </mxGeometry>
        </mxCell>
        <mxCell id="xu7K4sSo9NaXd2ChQRZj-398" value="" style="verticalLabelPosition=bottom;verticalAlign=top;html=1;shape=mxgraph.flowchart.on-page_reference;labelBackgroundColor=none;" parent="1" vertex="1">
          <mxGeometry x="-449.75" y="2190" width="20" height="20" as="geometry" />
        </mxCell>
        <mxCell id="xu7K4sSo9NaXd2ChQRZj-399" value="" style="shape=sumEllipse;perimeter=ellipsePerimeter;whiteSpace=wrap;html=1;backgroundOutline=1;labelBackgroundColor=none;" parent="1" vertex="1">
          <mxGeometry x="-210.75" y="2190" width="20" height="20" as="geometry" />
        </mxCell>
        <mxCell id="xu7K4sSo9NaXd2ChQRZj-404" value="CASE 2.2" style="text;html=1;align=center;verticalAlign=middle;whiteSpace=wrap;rounded=0;labelBackgroundColor=none;" parent="1" vertex="1">
          <mxGeometry x="-376.75" y="2260" width="250" height="30" as="geometry" />
        </mxCell>
        <mxCell id="xu7K4sSo9NaXd2ChQRZj-405" value="" style="html=1;shadow=0;dashed=1;align=center;verticalAlign=middle;shape=mxgraph.arrows2.arrow;dy=0.6;dx=40;direction=south;notch=0;labelBackgroundColor=none;" parent="1" vertex="1">
          <mxGeometry x="-449.75" y="2161" width="20" height="20" as="geometry" />
        </mxCell>
        <mxCell id="xu7K4sSo9NaXd2ChQRZj-406" value="" style="html=1;shadow=0;align=center;verticalAlign=middle;shape=mxgraph.arrows2.arrow;dy=0.6;dx=40;direction=south;notch=0;labelBackgroundColor=none;" parent="1" vertex="1">
          <mxGeometry x="-128.75" y="2161" width="20" height="20" as="geometry" />
        </mxCell>
        <mxCell id="xu7K4sSo9NaXd2ChQRZj-407" value="" style="endArrow=classic;html=1;rounded=0;startArrow=none;startFill=0;endFill=1;labelBackgroundColor=none;fontColor=default;" parent="1" edge="1">
          <mxGeometry width="50" height="50" relative="1" as="geometry">
            <mxPoint x="-759.5" y="2441" as="sourcePoint" />
            <mxPoint x="160.5" y="2441" as="targetPoint" />
          </mxGeometry>
        </mxCell>
        <mxCell id="xu7K4sSo9NaXd2ChQRZj-408" value="" style="verticalLabelPosition=bottom;verticalAlign=top;html=1;shape=mxgraph.flowchart.on-page_reference;labelBackgroundColor=none;" parent="1" vertex="1">
          <mxGeometry x="-449.75" y="2430" width="20" height="20" as="geometry" />
        </mxCell>
        <mxCell id="xu7K4sSo9NaXd2ChQRZj-409" value="" style="shape=sumEllipse;perimeter=ellipsePerimeter;whiteSpace=wrap;html=1;backgroundOutline=1;labelBackgroundColor=none;" parent="1" vertex="1">
          <mxGeometry x="-530" y="2430" width="20" height="20" as="geometry" />
        </mxCell>
        <mxCell id="xu7K4sSo9NaXd2ChQRZj-414" value="CASE 2.3" style="text;html=1;align=center;verticalAlign=middle;whiteSpace=wrap;rounded=0;labelBackgroundColor=none;" parent="1" vertex="1">
          <mxGeometry x="-376.5" y="2500" width="250" height="30" as="geometry" />
        </mxCell>
        <mxCell id="xu7K4sSo9NaXd2ChQRZj-415" value="" style="html=1;shadow=0;dashed=1;align=center;verticalAlign=middle;shape=mxgraph.arrows2.arrow;dy=0.6;dx=40;direction=south;notch=0;labelBackgroundColor=none;" parent="1" vertex="1">
          <mxGeometry x="-449.5" y="2401" width="20" height="20" as="geometry" />
        </mxCell>
        <mxCell id="xu7K4sSo9NaXd2ChQRZj-416" value="" style="html=1;shadow=0;align=center;verticalAlign=middle;shape=mxgraph.arrows2.arrow;dy=0.6;dx=40;direction=south;notch=0;labelBackgroundColor=none;" parent="1" vertex="1">
          <mxGeometry x="-128.5" y="2401" width="20" height="20" as="geometry" />
        </mxCell>
        <mxCell id="xu7K4sSo9NaXd2ChQRZj-417" value="" style="endArrow=classic;html=1;rounded=0;startArrow=none;startFill=0;endFill=1;labelBackgroundColor=none;fontColor=default;" parent="1" edge="1">
          <mxGeometry width="50" height="50" relative="1" as="geometry">
            <mxPoint x="-759.5" y="2680" as="sourcePoint" />
            <mxPoint x="160.5" y="2680" as="targetPoint" />
          </mxGeometry>
        </mxCell>
        <mxCell id="xu7K4sSo9NaXd2ChQRZj-418" value="" style="verticalLabelPosition=bottom;verticalAlign=top;html=1;shape=mxgraph.flowchart.on-page_reference;labelBackgroundColor=none;" parent="1" vertex="1">
          <mxGeometry x="-370" y="2669" width="20" height="20" as="geometry" />
        </mxCell>
        <mxCell id="xu7K4sSo9NaXd2ChQRZj-419" value="" style="shape=sumEllipse;perimeter=ellipsePerimeter;whiteSpace=wrap;html=1;backgroundOutline=1;labelBackgroundColor=none;" parent="1" vertex="1">
          <mxGeometry x="30" y="2669" width="20" height="20" as="geometry" />
        </mxCell>
        <mxCell id="xu7K4sSo9NaXd2ChQRZj-424" value="CASE 3.0" style="text;html=1;align=center;verticalAlign=middle;whiteSpace=wrap;rounded=0;labelBackgroundColor=none;" parent="1" vertex="1">
          <mxGeometry x="-376.5" y="2739" width="250" height="30" as="geometry" />
        </mxCell>
        <mxCell id="xu7K4sSo9NaXd2ChQRZj-425" value="" style="html=1;shadow=0;dashed=1;align=center;verticalAlign=middle;shape=mxgraph.arrows2.arrow;dy=0.6;dx=40;direction=south;notch=0;labelBackgroundColor=none;" parent="1" vertex="1">
          <mxGeometry x="-449.5" y="2640" width="20" height="20" as="geometry" />
        </mxCell>
        <mxCell id="xu7K4sSo9NaXd2ChQRZj-426" value="" style="html=1;shadow=0;align=center;verticalAlign=middle;shape=mxgraph.arrows2.arrow;dy=0.6;dx=40;direction=south;notch=0;labelBackgroundColor=none;" parent="1" vertex="1">
          <mxGeometry x="-128.5" y="2640" width="20" height="20" as="geometry" />
        </mxCell>
        <mxCell id="xu7K4sSo9NaXd2ChQRZj-427" value="" style="endArrow=classic;html=1;rounded=0;startArrow=none;startFill=0;endFill=1;labelBackgroundColor=none;fontColor=default;" parent="1" edge="1">
          <mxGeometry width="50" height="50" relative="1" as="geometry">
            <mxPoint x="-759.5" y="2919" as="sourcePoint" />
            <mxPoint x="160.5" y="2919" as="targetPoint" />
          </mxGeometry>
        </mxCell>
        <mxCell id="xu7K4sSo9NaXd2ChQRZj-428" value="" style="verticalLabelPosition=bottom;verticalAlign=top;html=1;shape=mxgraph.flowchart.on-page_reference;labelBackgroundColor=none;" parent="1" vertex="1">
          <mxGeometry x="-370" y="2908" width="20" height="20" as="geometry" />
        </mxCell>
        <mxCell id="xu7K4sSo9NaXd2ChQRZj-429" value="" style="shape=sumEllipse;perimeter=ellipsePerimeter;whiteSpace=wrap;html=1;backgroundOutline=1;labelBackgroundColor=none;" parent="1" vertex="1">
          <mxGeometry x="-128.5" y="2908" width="20" height="20" as="geometry" />
        </mxCell>
        <mxCell id="xu7K4sSo9NaXd2ChQRZj-434" value="CASE 3.1" style="text;html=1;align=center;verticalAlign=middle;whiteSpace=wrap;rounded=0;labelBackgroundColor=none;" parent="1" vertex="1">
          <mxGeometry x="-376.5" y="2978" width="250" height="30" as="geometry" />
        </mxCell>
        <mxCell id="xu7K4sSo9NaXd2ChQRZj-435" value="" style="html=1;shadow=0;dashed=1;align=center;verticalAlign=middle;shape=mxgraph.arrows2.arrow;dy=0.6;dx=40;direction=south;notch=0;labelBackgroundColor=none;" parent="1" vertex="1">
          <mxGeometry x="-449.5" y="2879" width="20" height="20" as="geometry" />
        </mxCell>
        <mxCell id="xu7K4sSo9NaXd2ChQRZj-436" value="" style="html=1;shadow=0;align=center;verticalAlign=middle;shape=mxgraph.arrows2.arrow;dy=0.6;dx=40;direction=south;notch=0;labelBackgroundColor=none;" parent="1" vertex="1">
          <mxGeometry x="-128.5" y="2879" width="20" height="20" as="geometry" />
        </mxCell>
        <mxCell id="xu7K4sSo9NaXd2ChQRZj-437" value="" style="endArrow=classic;html=1;rounded=0;startArrow=none;startFill=0;endFill=1;labelBackgroundColor=none;fontColor=default;" parent="1" edge="1">
          <mxGeometry width="50" height="50" relative="1" as="geometry">
            <mxPoint x="-759.5" y="3159" as="sourcePoint" />
            <mxPoint x="160.5" y="3159" as="targetPoint" />
          </mxGeometry>
        </mxCell>
        <mxCell id="xu7K4sSo9NaXd2ChQRZj-438" value="" style="verticalLabelPosition=bottom;verticalAlign=top;html=1;shape=mxgraph.flowchart.on-page_reference;labelBackgroundColor=none;" parent="1" vertex="1">
          <mxGeometry x="-370" y="3148" width="20" height="20" as="geometry" />
        </mxCell>
        <mxCell id="xu7K4sSo9NaXd2ChQRZj-439" value="" style="shape=sumEllipse;perimeter=ellipsePerimeter;whiteSpace=wrap;html=1;backgroundOutline=1;labelBackgroundColor=none;" parent="1" vertex="1">
          <mxGeometry x="-209.75" y="3148" width="20" height="20" as="geometry" />
        </mxCell>
        <mxCell id="xu7K4sSo9NaXd2ChQRZj-444" value="CASE 3.2" style="text;html=1;align=center;verticalAlign=middle;whiteSpace=wrap;rounded=0;labelBackgroundColor=none;" parent="1" vertex="1">
          <mxGeometry x="-376.5" y="3218" width="250" height="30" as="geometry" />
        </mxCell>
        <mxCell id="xu7K4sSo9NaXd2ChQRZj-445" value="" style="html=1;shadow=0;dashed=1;align=center;verticalAlign=middle;shape=mxgraph.arrows2.arrow;dy=0.6;dx=40;direction=south;notch=0;labelBackgroundColor=none;" parent="1" vertex="1">
          <mxGeometry x="-449.5" y="3119" width="20" height="20" as="geometry" />
        </mxCell>
        <mxCell id="xu7K4sSo9NaXd2ChQRZj-446" value="" style="html=1;shadow=0;align=center;verticalAlign=middle;shape=mxgraph.arrows2.arrow;dy=0.6;dx=40;direction=south;notch=0;labelBackgroundColor=none;" parent="1" vertex="1">
          <mxGeometry x="-128.5" y="3119" width="20" height="20" as="geometry" />
        </mxCell>
        <mxCell id="xu7K4sSo9NaXd2ChQRZj-447" value="" style="endArrow=classic;html=1;rounded=0;startArrow=none;startFill=0;endFill=1;labelBackgroundColor=none;fontColor=default;" parent="1" edge="1">
          <mxGeometry width="50" height="50" relative="1" as="geometry">
            <mxPoint x="-759.25" y="3399" as="sourcePoint" />
            <mxPoint x="160.75" y="3399" as="targetPoint" />
          </mxGeometry>
        </mxCell>
        <mxCell id="xu7K4sSo9NaXd2ChQRZj-448" value="" style="verticalLabelPosition=bottom;verticalAlign=top;html=1;shape=mxgraph.flowchart.on-page_reference;labelBackgroundColor=none;" parent="1" vertex="1">
          <mxGeometry x="-370" y="3388" width="20" height="20" as="geometry" />
        </mxCell>
        <mxCell id="xu7K4sSo9NaXd2ChQRZj-449" value="" style="shape=sumEllipse;perimeter=ellipsePerimeter;whiteSpace=wrap;html=1;backgroundOutline=1;labelBackgroundColor=none;" parent="1" vertex="1">
          <mxGeometry x="-449.5" y="3388" width="20" height="20" as="geometry" />
        </mxCell>
        <mxCell id="xu7K4sSo9NaXd2ChQRZj-454" value="CASE 3.3" style="text;html=1;align=center;verticalAlign=middle;whiteSpace=wrap;rounded=0;labelBackgroundColor=none;" parent="1" vertex="1">
          <mxGeometry x="-376.25" y="3458" width="250" height="30" as="geometry" />
        </mxCell>
        <mxCell id="xu7K4sSo9NaXd2ChQRZj-455" value="" style="html=1;shadow=0;dashed=1;align=center;verticalAlign=middle;shape=mxgraph.arrows2.arrow;dy=0.6;dx=40;direction=south;notch=0;labelBackgroundColor=none;" parent="1" vertex="1">
          <mxGeometry x="-449.25" y="3359" width="20" height="20" as="geometry" />
        </mxCell>
        <mxCell id="xu7K4sSo9NaXd2ChQRZj-456" value="" style="html=1;shadow=0;align=center;verticalAlign=middle;shape=mxgraph.arrows2.arrow;dy=0.6;dx=40;direction=south;notch=0;labelBackgroundColor=none;" parent="1" vertex="1">
          <mxGeometry x="-128.25" y="3359" width="20" height="20" as="geometry" />
        </mxCell>
        <mxCell id="xu7K4sSo9NaXd2ChQRZj-457" value="" style="endArrow=classic;html=1;rounded=0;startArrow=none;startFill=0;endFill=1;labelBackgroundColor=none;fontColor=default;" parent="1" edge="1">
          <mxGeometry width="50" height="50" relative="1" as="geometry">
            <mxPoint x="-759.25" y="3639" as="sourcePoint" />
            <mxPoint x="160.75" y="3639" as="targetPoint" />
          </mxGeometry>
        </mxCell>
        <mxCell id="xu7K4sSo9NaXd2ChQRZj-458" value="" style="verticalLabelPosition=bottom;verticalAlign=top;html=1;shape=mxgraph.flowchart.on-page_reference;labelBackgroundColor=none;" parent="1" vertex="1">
          <mxGeometry x="-370" y="3628" width="20" height="20" as="geometry" />
        </mxCell>
        <mxCell id="xu7K4sSo9NaXd2ChQRZj-459" value="" style="shape=sumEllipse;perimeter=ellipsePerimeter;whiteSpace=wrap;html=1;backgroundOutline=1;labelBackgroundColor=none;" parent="1" vertex="1">
          <mxGeometry x="-530" y="3628" width="20" height="20" as="geometry" />
        </mxCell>
        <mxCell id="xu7K4sSo9NaXd2ChQRZj-464" value="CASE 3.4" style="text;html=1;align=center;verticalAlign=middle;whiteSpace=wrap;rounded=0;labelBackgroundColor=none;" parent="1" vertex="1">
          <mxGeometry x="-376.25" y="3698" width="250" height="30" as="geometry" />
        </mxCell>
        <mxCell id="xu7K4sSo9NaXd2ChQRZj-465" value="" style="html=1;shadow=0;dashed=1;align=center;verticalAlign=middle;shape=mxgraph.arrows2.arrow;dy=0.6;dx=40;direction=south;notch=0;labelBackgroundColor=none;" parent="1" vertex="1">
          <mxGeometry x="-449.25" y="3599" width="20" height="20" as="geometry" />
        </mxCell>
        <mxCell id="xu7K4sSo9NaXd2ChQRZj-466" value="" style="html=1;shadow=0;align=center;verticalAlign=middle;shape=mxgraph.arrows2.arrow;dy=0.6;dx=40;direction=south;notch=0;labelBackgroundColor=none;" parent="1" vertex="1">
          <mxGeometry x="-128.25" y="3599" width="20" height="20" as="geometry" />
        </mxCell>
        <mxCell id="xu7K4sSo9NaXd2ChQRZj-467" value="" style="endArrow=classic;html=1;rounded=0;startArrow=none;startFill=0;endFill=1;labelBackgroundColor=none;fontColor=default;" parent="1" edge="1">
          <mxGeometry width="50" height="50" relative="1" as="geometry">
            <mxPoint x="-759.25" y="3878" as="sourcePoint" />
            <mxPoint x="160.75" y="3878" as="targetPoint" />
          </mxGeometry>
        </mxCell>
        <mxCell id="xu7K4sSo9NaXd2ChQRZj-468" value="" style="verticalLabelPosition=bottom;verticalAlign=top;html=1;shape=mxgraph.flowchart.on-page_reference;labelBackgroundColor=none;" parent="1" vertex="1">
          <mxGeometry x="-130" y="3867" width="20" height="20" as="geometry" />
        </mxCell>
        <mxCell id="xu7K4sSo9NaXd2ChQRZj-469" value="" style="shape=sumEllipse;perimeter=ellipsePerimeter;whiteSpace=wrap;html=1;backgroundOutline=1;labelBackgroundColor=none;" parent="1" vertex="1">
          <mxGeometry x="30.25" y="3867" width="20" height="20" as="geometry" />
        </mxCell>
        <mxCell id="xu7K4sSo9NaXd2ChQRZj-474" value="CASE 4.0" style="text;html=1;align=center;verticalAlign=middle;whiteSpace=wrap;rounded=0;labelBackgroundColor=none;" parent="1" vertex="1">
          <mxGeometry x="-376.25" y="3937" width="250" height="30" as="geometry" />
        </mxCell>
        <mxCell id="xu7K4sSo9NaXd2ChQRZj-475" value="" style="html=1;shadow=0;dashed=1;align=center;verticalAlign=middle;shape=mxgraph.arrows2.arrow;dy=0.6;dx=40;direction=south;notch=0;labelBackgroundColor=none;" parent="1" vertex="1">
          <mxGeometry x="-449.25" y="3838" width="20" height="20" as="geometry" />
        </mxCell>
        <mxCell id="xu7K4sSo9NaXd2ChQRZj-476" value="" style="html=1;shadow=0;align=center;verticalAlign=middle;shape=mxgraph.arrows2.arrow;dy=0.6;dx=40;direction=south;notch=0;labelBackgroundColor=none;" parent="1" vertex="1">
          <mxGeometry x="-128.25" y="3838" width="20" height="20" as="geometry" />
        </mxCell>
        <mxCell id="xu7K4sSo9NaXd2ChQRZj-477" value="" style="endArrow=classic;html=1;rounded=0;startArrow=none;startFill=0;endFill=1;labelBackgroundColor=none;fontColor=default;" parent="1" edge="1">
          <mxGeometry width="50" height="50" relative="1" as="geometry">
            <mxPoint x="-759.75" y="4120" as="sourcePoint" />
            <mxPoint x="160.25" y="4120" as="targetPoint" />
          </mxGeometry>
        </mxCell>
        <mxCell id="xu7K4sSo9NaXd2ChQRZj-478" value="" style="verticalLabelPosition=bottom;verticalAlign=top;html=1;shape=mxgraph.flowchart.on-page_reference;labelBackgroundColor=none;" parent="1" vertex="1">
          <mxGeometry x="-130.25" y="4109" width="20" height="20" as="geometry" />
        </mxCell>
        <mxCell id="xu7K4sSo9NaXd2ChQRZj-479" value="" style="shape=sumEllipse;perimeter=ellipsePerimeter;whiteSpace=wrap;html=1;backgroundOutline=1;labelBackgroundColor=none;" parent="1" vertex="1">
          <mxGeometry x="-211" y="4109" width="20" height="20" as="geometry" />
        </mxCell>
        <mxCell id="xu7K4sSo9NaXd2ChQRZj-484" value="CASE 4.1" style="text;html=1;align=center;verticalAlign=middle;whiteSpace=wrap;rounded=0;labelBackgroundColor=none;" parent="1" vertex="1">
          <mxGeometry x="-376.75" y="4179" width="250" height="30" as="geometry" />
        </mxCell>
        <mxCell id="xu7K4sSo9NaXd2ChQRZj-485" value="" style="html=1;shadow=0;dashed=1;align=center;verticalAlign=middle;shape=mxgraph.arrows2.arrow;dy=0.6;dx=40;direction=south;notch=0;labelBackgroundColor=none;" parent="1" vertex="1">
          <mxGeometry x="-449.75" y="4080" width="20" height="20" as="geometry" />
        </mxCell>
        <mxCell id="xu7K4sSo9NaXd2ChQRZj-486" value="" style="html=1;shadow=0;align=center;verticalAlign=middle;shape=mxgraph.arrows2.arrow;dy=0.6;dx=40;direction=south;notch=0;labelBackgroundColor=none;" parent="1" vertex="1">
          <mxGeometry x="-128.75" y="4080" width="20" height="20" as="geometry" />
        </mxCell>
        <mxCell id="xu7K4sSo9NaXd2ChQRZj-487" value="" style="endArrow=classic;html=1;rounded=0;startArrow=none;startFill=0;endFill=1;labelBackgroundColor=none;fontColor=default;" parent="1" edge="1">
          <mxGeometry width="50" height="50" relative="1" as="geometry">
            <mxPoint x="-759.5" y="4360" as="sourcePoint" />
            <mxPoint x="160.5" y="4360" as="targetPoint" />
          </mxGeometry>
        </mxCell>
        <mxCell id="xu7K4sSo9NaXd2ChQRZj-488" value="" style="verticalLabelPosition=bottom;verticalAlign=top;html=1;shape=mxgraph.flowchart.on-page_reference;labelBackgroundColor=none;" parent="1" vertex="1">
          <mxGeometry x="-130.25" y="4349" width="20" height="20" as="geometry" />
        </mxCell>
        <mxCell id="xu7K4sSo9NaXd2ChQRZj-489" value="" style="shape=sumEllipse;perimeter=ellipsePerimeter;whiteSpace=wrap;html=1;backgroundOutline=1;labelBackgroundColor=none;" parent="1" vertex="1">
          <mxGeometry x="-450.75" y="4349" width="20" height="20" as="geometry" />
        </mxCell>
        <mxCell id="xu7K4sSo9NaXd2ChQRZj-494" value="CASE 4.2" style="text;html=1;align=center;verticalAlign=middle;whiteSpace=wrap;rounded=0;labelBackgroundColor=none;" parent="1" vertex="1">
          <mxGeometry x="-376.5" y="4419" width="250" height="30" as="geometry" />
        </mxCell>
        <mxCell id="xu7K4sSo9NaXd2ChQRZj-495" value="" style="html=1;shadow=0;dashed=1;align=center;verticalAlign=middle;shape=mxgraph.arrows2.arrow;dy=0.6;dx=40;direction=south;notch=0;labelBackgroundColor=none;" parent="1" vertex="1">
          <mxGeometry x="-449.5" y="4320" width="20" height="20" as="geometry" />
        </mxCell>
        <mxCell id="xu7K4sSo9NaXd2ChQRZj-496" value="" style="html=1;shadow=0;align=center;verticalAlign=middle;shape=mxgraph.arrows2.arrow;dy=0.6;dx=40;direction=south;notch=0;labelBackgroundColor=none;" parent="1" vertex="1">
          <mxGeometry x="-128.5" y="4320" width="20" height="20" as="geometry" />
        </mxCell>
        <mxCell id="xu7K4sSo9NaXd2ChQRZj-497" value="" style="endArrow=classic;html=1;rounded=0;startArrow=none;startFill=0;endFill=1;labelBackgroundColor=none;fontColor=default;" parent="1" edge="1">
          <mxGeometry width="50" height="50" relative="1" as="geometry">
            <mxPoint x="-759.5" y="4600" as="sourcePoint" />
            <mxPoint x="160.5" y="4600" as="targetPoint" />
          </mxGeometry>
        </mxCell>
        <mxCell id="xu7K4sSo9NaXd2ChQRZj-498" value="" style="verticalLabelPosition=bottom;verticalAlign=top;html=1;shape=mxgraph.flowchart.on-page_reference;labelBackgroundColor=none;" parent="1" vertex="1">
          <mxGeometry x="-130.25" y="4589" width="20" height="20" as="geometry" />
        </mxCell>
        <mxCell id="xu7K4sSo9NaXd2ChQRZj-499" value="" style="shape=sumEllipse;perimeter=ellipsePerimeter;whiteSpace=wrap;html=1;backgroundOutline=1;labelBackgroundColor=none;" parent="1" vertex="1">
          <mxGeometry x="-530" y="4589" width="20" height="20" as="geometry" />
        </mxCell>
        <mxCell id="xu7K4sSo9NaXd2ChQRZj-504" value="CASE 4.3" style="text;html=1;align=center;verticalAlign=middle;whiteSpace=wrap;rounded=0;labelBackgroundColor=none;" parent="1" vertex="1">
          <mxGeometry x="-376.5" y="4659" width="250" height="30" as="geometry" />
        </mxCell>
        <mxCell id="xu7K4sSo9NaXd2ChQRZj-505" value="" style="html=1;shadow=0;dashed=1;align=center;verticalAlign=middle;shape=mxgraph.arrows2.arrow;dy=0.6;dx=40;direction=south;notch=0;labelBackgroundColor=none;" parent="1" vertex="1">
          <mxGeometry x="-449.5" y="4560" width="20" height="20" as="geometry" />
        </mxCell>
        <mxCell id="xu7K4sSo9NaXd2ChQRZj-506" value="" style="html=1;shadow=0;align=center;verticalAlign=middle;shape=mxgraph.arrows2.arrow;dy=0.6;dx=40;direction=south;notch=0;labelBackgroundColor=none;" parent="1" vertex="1">
          <mxGeometry x="-128.5" y="4560" width="20" height="20" as="geometry" />
        </mxCell>
        <mxCell id="xu7K4sSo9NaXd2ChQRZj-507" value="" style="endArrow=classic;html=1;rounded=0;startArrow=none;startFill=0;endFill=1;labelBackgroundColor=none;fontColor=default;" parent="1" edge="1">
          <mxGeometry width="50" height="50" relative="1" as="geometry">
            <mxPoint x="-759.5" y="4839" as="sourcePoint" />
            <mxPoint x="160.5" y="4839" as="targetPoint" />
          </mxGeometry>
        </mxCell>
        <mxCell id="xu7K4sSo9NaXd2ChQRZj-508" value="" style="verticalLabelPosition=bottom;verticalAlign=top;html=1;shape=mxgraph.flowchart.on-page_reference;labelBackgroundColor=none;" parent="1" vertex="1">
          <mxGeometry x="-50" y="4828" width="20" height="20" as="geometry" />
        </mxCell>
        <mxCell id="xu7K4sSo9NaXd2ChQRZj-509" value="" style="shape=sumEllipse;perimeter=ellipsePerimeter;whiteSpace=wrap;html=1;backgroundOutline=1;labelBackgroundColor=none;" parent="1" vertex="1">
          <mxGeometry x="30" y="4828" width="20" height="20" as="geometry" />
        </mxCell>
        <mxCell id="xu7K4sSo9NaXd2ChQRZj-514" value="CASE 5.0" style="text;html=1;align=center;verticalAlign=middle;whiteSpace=wrap;rounded=0;labelBackgroundColor=none;" parent="1" vertex="1">
          <mxGeometry x="-376.5" y="4898" width="250" height="30" as="geometry" />
        </mxCell>
        <mxCell id="xu7K4sSo9NaXd2ChQRZj-515" value="" style="html=1;shadow=0;dashed=1;align=center;verticalAlign=middle;shape=mxgraph.arrows2.arrow;dy=0.6;dx=40;direction=south;notch=0;labelBackgroundColor=none;" parent="1" vertex="1">
          <mxGeometry x="-449.5" y="4799" width="20" height="20" as="geometry" />
        </mxCell>
        <mxCell id="xu7K4sSo9NaXd2ChQRZj-516" value="" style="html=1;shadow=0;align=center;verticalAlign=middle;shape=mxgraph.arrows2.arrow;dy=0.6;dx=40;direction=south;notch=0;labelBackgroundColor=none;" parent="1" vertex="1">
          <mxGeometry x="-128.5" y="4799" width="20" height="20" as="geometry" />
        </mxCell>
        <mxCell id="xu7K4sSo9NaXd2ChQRZj-587" value="" style="endArrow=classic;html=1;rounded=0;startArrow=none;startFill=0;endFill=1;labelBackgroundColor=none;fontColor=default;" parent="1" edge="1">
          <mxGeometry width="50" height="50" relative="1" as="geometry">
            <mxPoint x="-759.25" y="5090" as="sourcePoint" />
            <mxPoint x="160.75" y="5090" as="targetPoint" />
          </mxGeometry>
        </mxCell>
        <mxCell id="xu7K4sSo9NaXd2ChQRZj-588" value="" style="verticalLabelPosition=bottom;verticalAlign=top;html=1;shape=mxgraph.flowchart.on-page_reference;labelBackgroundColor=none;" parent="1" vertex="1">
          <mxGeometry x="-50" y="5079" width="20" height="20" as="geometry" />
        </mxCell>
        <mxCell id="xu7K4sSo9NaXd2ChQRZj-589" value="" style="shape=sumEllipse;perimeter=ellipsePerimeter;whiteSpace=wrap;html=1;backgroundOutline=1;labelBackgroundColor=none;" parent="1" vertex="1">
          <mxGeometry x="-130.25" y="5079" width="20" height="20" as="geometry" />
        </mxCell>
        <mxCell id="xu7K4sSo9NaXd2ChQRZj-594" value="CASE 5.1" style="text;html=1;align=center;verticalAlign=middle;whiteSpace=wrap;rounded=0;labelBackgroundColor=none;" parent="1" vertex="1">
          <mxGeometry x="-376.25" y="5149" width="250" height="30" as="geometry" />
        </mxCell>
        <mxCell id="xu7K4sSo9NaXd2ChQRZj-595" value="" style="html=1;shadow=0;dashed=1;align=center;verticalAlign=middle;shape=mxgraph.arrows2.arrow;dy=0.6;dx=40;direction=south;notch=0;labelBackgroundColor=none;" parent="1" vertex="1">
          <mxGeometry x="-449.25" y="5050" width="20" height="20" as="geometry" />
        </mxCell>
        <mxCell id="xu7K4sSo9NaXd2ChQRZj-596" value="" style="html=1;shadow=0;align=center;verticalAlign=middle;shape=mxgraph.arrows2.arrow;dy=0.6;dx=40;direction=south;notch=0;labelBackgroundColor=none;" parent="1" vertex="1">
          <mxGeometry x="-128.25" y="5050" width="20" height="20" as="geometry" />
        </mxCell>
        <mxCell id="xu7K4sSo9NaXd2ChQRZj-597" value="" style="endArrow=classic;html=1;rounded=0;startArrow=none;startFill=0;endFill=1;labelBackgroundColor=none;fontColor=default;" parent="1" edge="1">
          <mxGeometry width="50" height="50" relative="1" as="geometry">
            <mxPoint x="-759.75" y="5332" as="sourcePoint" />
            <mxPoint x="160.25" y="5332" as="targetPoint" />
          </mxGeometry>
        </mxCell>
        <mxCell id="xu7K4sSo9NaXd2ChQRZj-598" value="" style="verticalLabelPosition=bottom;verticalAlign=top;html=1;shape=mxgraph.flowchart.on-page_reference;labelBackgroundColor=none;" parent="1" vertex="1">
          <mxGeometry x="-50" y="5321" width="20" height="20" as="geometry" />
        </mxCell>
        <mxCell id="xu7K4sSo9NaXd2ChQRZj-599" value="" style="shape=sumEllipse;perimeter=ellipsePerimeter;whiteSpace=wrap;html=1;backgroundOutline=1;labelBackgroundColor=none;" parent="1" vertex="1">
          <mxGeometry x="-211" y="5321" width="20" height="20" as="geometry" />
        </mxCell>
        <mxCell id="xu7K4sSo9NaXd2ChQRZj-604" value="CASE 5.2" style="text;html=1;align=center;verticalAlign=middle;whiteSpace=wrap;rounded=0;labelBackgroundColor=none;" parent="1" vertex="1">
          <mxGeometry x="-376.75" y="5391" width="250" height="30" as="geometry" />
        </mxCell>
        <mxCell id="xu7K4sSo9NaXd2ChQRZj-605" value="" style="html=1;shadow=0;dashed=1;align=center;verticalAlign=middle;shape=mxgraph.arrows2.arrow;dy=0.6;dx=40;direction=south;notch=0;labelBackgroundColor=none;" parent="1" vertex="1">
          <mxGeometry x="-449.75" y="5292" width="20" height="20" as="geometry" />
        </mxCell>
        <mxCell id="xu7K4sSo9NaXd2ChQRZj-606" value="" style="html=1;shadow=0;align=center;verticalAlign=middle;shape=mxgraph.arrows2.arrow;dy=0.6;dx=40;direction=south;notch=0;labelBackgroundColor=none;" parent="1" vertex="1">
          <mxGeometry x="-128.75" y="5292" width="20" height="20" as="geometry" />
        </mxCell>
        <mxCell id="xu7K4sSo9NaXd2ChQRZj-607" value="" style="endArrow=classic;html=1;rounded=0;startArrow=none;startFill=0;endFill=1;labelBackgroundColor=none;fontColor=default;" parent="1" edge="1">
          <mxGeometry width="50" height="50" relative="1" as="geometry">
            <mxPoint x="-759.5" y="5572" as="sourcePoint" />
            <mxPoint x="160.5" y="5572" as="targetPoint" />
          </mxGeometry>
        </mxCell>
        <mxCell id="xu7K4sSo9NaXd2ChQRZj-608" value="" style="verticalLabelPosition=bottom;verticalAlign=top;html=1;shape=mxgraph.flowchart.on-page_reference;labelBackgroundColor=none;" parent="1" vertex="1">
          <mxGeometry x="-50" y="5561" width="20" height="20" as="geometry" />
        </mxCell>
        <mxCell id="xu7K4sSo9NaXd2ChQRZj-609" value="" style="shape=sumEllipse;perimeter=ellipsePerimeter;whiteSpace=wrap;html=1;backgroundOutline=1;labelBackgroundColor=none;" parent="1" vertex="1">
          <mxGeometry x="-450.75" y="5561" width="20" height="20" as="geometry" />
        </mxCell>
        <mxCell id="xu7K4sSo9NaXd2ChQRZj-614" value="CASE 5.3" style="text;html=1;align=center;verticalAlign=middle;whiteSpace=wrap;rounded=0;labelBackgroundColor=none;" parent="1" vertex="1">
          <mxGeometry x="-376.5" y="5631" width="250" height="30" as="geometry" />
        </mxCell>
        <mxCell id="xu7K4sSo9NaXd2ChQRZj-615" value="" style="html=1;shadow=0;dashed=1;align=center;verticalAlign=middle;shape=mxgraph.arrows2.arrow;dy=0.6;dx=40;direction=south;notch=0;labelBackgroundColor=none;" parent="1" vertex="1">
          <mxGeometry x="-449.5" y="5532" width="20" height="20" as="geometry" />
        </mxCell>
        <mxCell id="xu7K4sSo9NaXd2ChQRZj-616" value="" style="html=1;shadow=0;align=center;verticalAlign=middle;shape=mxgraph.arrows2.arrow;dy=0.6;dx=40;direction=south;notch=0;labelBackgroundColor=none;" parent="1" vertex="1">
          <mxGeometry x="-128.5" y="5532" width="20" height="20" as="geometry" />
        </mxCell>
        <mxCell id="xu7K4sSo9NaXd2ChQRZj-617" value="" style="endArrow=classic;html=1;rounded=0;startArrow=none;startFill=0;endFill=1;labelBackgroundColor=none;fontColor=default;" parent="1" edge="1">
          <mxGeometry width="50" height="50" relative="1" as="geometry">
            <mxPoint x="-759.5" y="5812" as="sourcePoint" />
            <mxPoint x="160.5" y="5812" as="targetPoint" />
          </mxGeometry>
        </mxCell>
        <mxCell id="xu7K4sSo9NaXd2ChQRZj-618" value="" style="verticalLabelPosition=bottom;verticalAlign=top;html=1;shape=mxgraph.flowchart.on-page_reference;labelBackgroundColor=none;" parent="1" vertex="1">
          <mxGeometry x="-50" y="5801" width="20" height="20" as="geometry" />
        </mxCell>
        <mxCell id="xu7K4sSo9NaXd2ChQRZj-619" value="" style="shape=sumEllipse;perimeter=ellipsePerimeter;whiteSpace=wrap;html=1;backgroundOutline=1;labelBackgroundColor=none;" parent="1" vertex="1">
          <mxGeometry x="-530" y="5801" width="20" height="20" as="geometry" />
        </mxCell>
        <mxCell id="xu7K4sSo9NaXd2ChQRZj-624" value="CASE 5.4" style="text;html=1;align=center;verticalAlign=middle;whiteSpace=wrap;rounded=0;labelBackgroundColor=none;" parent="1" vertex="1">
          <mxGeometry x="-376.5" y="5871" width="250" height="30" as="geometry" />
        </mxCell>
        <mxCell id="xu7K4sSo9NaXd2ChQRZj-625" value="" style="html=1;shadow=0;dashed=1;align=center;verticalAlign=middle;shape=mxgraph.arrows2.arrow;dy=0.6;dx=40;direction=south;notch=0;labelBackgroundColor=none;" parent="1" vertex="1">
          <mxGeometry x="-449.5" y="5772" width="20" height="20" as="geometry" />
        </mxCell>
        <mxCell id="xu7K4sSo9NaXd2ChQRZj-626" value="" style="html=1;shadow=0;align=center;verticalAlign=middle;shape=mxgraph.arrows2.arrow;dy=0.6;dx=40;direction=south;notch=0;labelBackgroundColor=none;" parent="1" vertex="1">
          <mxGeometry x="-128.5" y="5772" width="20" height="20" as="geometry" />
        </mxCell>
        <mxCell id="xu7K4sSo9NaXd2ChQRZj-627" value="" style="endArrow=classic;html=1;rounded=0;startArrow=none;startFill=0;endFill=1;labelBackgroundColor=none;fontColor=default;" parent="1" edge="1">
          <mxGeometry width="50" height="50" relative="1" as="geometry">
            <mxPoint x="-759.5" y="6051" as="sourcePoint" />
            <mxPoint x="160.5" y="6051" as="targetPoint" />
          </mxGeometry>
        </mxCell>
        <mxCell id="xu7K4sSo9NaXd2ChQRZj-628" value="" style="verticalLabelPosition=bottom;verticalAlign=top;html=1;shape=mxgraph.flowchart.on-page_reference;labelBackgroundColor=none;" parent="1" vertex="1">
          <mxGeometry x="110" y="6040" width="20" height="20" as="geometry" />
        </mxCell>
        <mxCell id="xu7K4sSo9NaXd2ChQRZj-629" value="" style="shape=sumEllipse;perimeter=ellipsePerimeter;whiteSpace=wrap;html=1;backgroundOutline=1;labelBackgroundColor=none;" parent="1" vertex="1">
          <mxGeometry x="30" y="6040" width="20" height="20" as="geometry" />
        </mxCell>
        <mxCell id="xu7K4sSo9NaXd2ChQRZj-634" value="CASE 6.0" style="text;html=1;align=center;verticalAlign=middle;whiteSpace=wrap;rounded=0;labelBackgroundColor=none;" parent="1" vertex="1">
          <mxGeometry x="-376.5" y="6110" width="250" height="30" as="geometry" />
        </mxCell>
        <mxCell id="xu7K4sSo9NaXd2ChQRZj-635" value="" style="html=1;shadow=0;dashed=1;align=center;verticalAlign=middle;shape=mxgraph.arrows2.arrow;dy=0.6;dx=40;direction=south;notch=0;labelBackgroundColor=none;" parent="1" vertex="1">
          <mxGeometry x="-449.5" y="6011" width="20" height="20" as="geometry" />
        </mxCell>
        <mxCell id="xu7K4sSo9NaXd2ChQRZj-636" value="" style="html=1;shadow=0;align=center;verticalAlign=middle;shape=mxgraph.arrows2.arrow;dy=0.6;dx=40;direction=south;notch=0;labelBackgroundColor=none;" parent="1" vertex="1">
          <mxGeometry x="-128.5" y="6011" width="20" height="20" as="geometry" />
        </mxCell>
        <mxCell id="xu7K4sSo9NaXd2ChQRZj-637" value="图例" style="text;html=1;align=center;verticalAlign=middle;whiteSpace=wrap;rounded=0;labelBackgroundColor=none;" parent="1" vertex="1">
          <mxGeometry x="-759.75" y="6177" width="90" height="30" as="geometry" />
        </mxCell>
      </root>
    </mxGraphModel>
  </diagram>
</mxfile>
